<?xml version="1.0" standalone="no"?>
<!DOCTYPE svg PUBLIC "-//W3C//DTD SVG 20010904//EN"
 "http://www.w3.org/TR/2001/REC-SVG-20010904/DTD/svg10.dtd">
<svg version="1.0" xmlns="http://www.w3.org/2000/svg"
 width="500.000000pt" height="500.000000pt" viewBox="0 0 500.000000 500.000000"
 preserveAspectRatio="xMidYMid meet">
<metadata>
Created by potrace 1.14, written by Peter Selinger 2001-2017
</metadata>
<g transform="translate(0.000000,500.000000) scale(0.100000,-0.100000)"
fill="#000000" stroke="none">
<path d="M2407 3884 c-4 -4 -24 -8 -46 -10 -86 -6 -247 -43 -326 -74 -16 -6
-32 -12 -35 -12 -26 -5 -40 -12 -40 -21 0 -6 -3 -7 -6 -4 -6 6 -161 -68 -174
-83 -3 -3 -25 -18 -50 -34 -94 -61 -277 -230 -319 -296 -16 -26 -72 -101 -81
-110 -29 -26 -158 -328 -161 -375 -1 -5 -5 -17 -9 -25 -4 -8 -11 -37 -15 -65
-4 -27 -9 -61 -11 -75 -5 -28 -15 -138 -15 -157 1 -33 0 -64 0 -75 -6 -67 33
-293 68 -397 34 -104 135 -310 156 -319 4 -2 7 -10 7 -17 0 -7 3 -15 8 -17 4
-1 26 -29 50 -60 74 -100 216 -235 307 -294 17 -10 32 -21 35 -24 9 -10 65
-41 83 -47 9 -3 17 -9 17 -14 0 -5 9 -9 19 -9 11 0 21 -4 23 -8 7 -18 265
-106 343 -117 94 -14 170 -22 177 -18 4 2 9 -1 13 -7 4 -6 10 -8 15 -5 4 3 57
7 116 10 134 6 181 12 289 38 11 3 34 8 50 12 17 4 35 10 40 14 6 3 18 7 27 8
9 2 33 12 53 23 20 11 40 18 44 15 5 -2 20 4 34 15 14 11 29 20 35 20 5 0 21
9 35 20 15 12 30 21 34 21 14 1 63 33 63 42 0 4 4 6 8 3 5 -3 22 7 39 22 17
15 46 38 64 52 57 44 229 220 229 235 0 3 10 16 23 30 21 25 64 93 89 145 7
14 15 27 18 30 10 10 52 116 82 204 41 126 60 228 62 343 1 29 5 53 9 53 5 0
6 4 3 9 -3 5 -8 49 -10 97 -7 136 -44 324 -77 386 -5 10 -9 23 -9 29 0 6 -11
33 -25 61 -14 27 -25 56 -25 64 0 8 -4 14 -10 14 -5 0 -10 5 -10 10 0 15 -82
150 -91 150 -4 0 -9 6 -11 14 -8 32 -181 218 -257 276 -18 14 -39 31 -47 38
-8 7 -14 10 -14 5 0 -4 -5 0 -11 10 -5 9 -17 17 -24 17 -8 0 -15 3 -15 8 0 4
-10 12 -23 18 -12 6 -58 31 -102 54 -83 44 -228 99 -270 102 -14 1 -25 5 -25
9 0 8 -156 31 -237 34 -36 2 -67 6 -70 9 -4 3 -12 1 -19 -5 -8 -7 -14 -7 -18
0 -4 6 -15 7 -30 1 -14 -5 -27 -5 -33 1 -5 5 -12 6 -16 3z m278 -279 c79 -16
150 -37 164 -48 12 -10 13 -9 7 1 -11 18 178 -69 236 -110 14 -10 31 -18 37
-18 6 0 11 -4 11 -9 0 -4 19 -21 41 -36 50 -32 192 -175 216 -216 10 -16 21
-29 25 -29 4 0 8 -5 8 -12 0 -6 6 -19 14 -27 31 -34 119 -232 128 -286 2 -11
6 -22 9 -25 6 -5 13 -42 25 -125 9 -69 15 -98 19 -105 3 -5 1 -11 -5 -15 -7
-4 -7 -12 0 -24 5 -10 7 -20 5 -23 -3 -3 -7 -40 -10 -84 -5 -80 -11 -122 -22
-159 -3 -11 -7 -29 -9 -40 -5 -43 -74 -210 -105 -256 -10 -14 -16 -29 -12 -33
3 -3 2 -6 -4 -6 -6 0 -16 -13 -23 -30 -7 -16 -15 -30 -19 -30 -4 0 -15 -15
-26 -32 -32 -55 -190 -203 -272 -257 -43 -28 -84 -55 -90 -61 -7 -6 -13 -8
-13 -6 0 3 -16 -3 -34 -14 -33 -18 -169 -68 -205 -75 -9 -2 -16 -4 -16 -5 0
-2 -24 -6 -95 -17 -71 -10 -269 -10 -340 0 -30 5 -62 9 -70 11 -9 1 -21 6 -28
10 -7 4 -16 5 -19 2 -3 -3 -14 -1 -25 5 -11 6 -27 12 -36 14 -79 15 -324 150
-340 187 -2 5 -8 8 -14 8 -5 0 -23 14 -38 30 -15 17 -33 30 -39 30 -6 0 -11 4
-11 8 0 5 -20 29 -44 55 -55 59 -147 192 -139 200 3 4 -2 9 -11 13 -9 3 -16
12 -16 18 0 7 -11 34 -24 62 -32 67 -66 178 -69 222 -1 20 -6 40 -12 44 -18
13 -10 380 10 430 3 9 8 25 10 35 2 10 4 19 4 21 1 1 1 5 2 10 2 14 32 88 65
160 19 41 34 78 34 83 0 5 4 9 9 9 5 0 14 14 21 30 7 17 16 30 21 30 5 0 9 6
9 13 1 25 152 187 225 242 22 17 42 32 45 35 12 13 108 70 118 70 5 0 12 4 14
8 3 7 142 71 168 76 3 1 25 7 50 14 107 30 189 39 320 36 74 -1 149 -5 165 -9z"/>
<path d="M2470 3400 c0 -4 -8 -6 -17 -4 -26 7 -71 -40 -81 -84 -6 -20 -9 -75
-8 -122 1 -47 -2 -93 -6 -102 -5 -10 -5 -18 -1 -18 10 0 9 -292 -1 -308 -4 -7
-3 -12 1 -12 5 0 7 -28 6 -62 -5 -84 -5 -75 2 -148 3 -35 9 -67 13 -70 4 -3 8
-12 10 -20 2 -8 8 -16 13 -18 5 -2 9 -8 9 -13 0 -5 126 -136 280 -289 186
-186 288 -281 303 -282 12 -1 31 -2 42 -3 29 -2 72 22 86 46 18 35 29 79 18
79 -5 0 -9 9 -9 21 0 14 -86 106 -258 277 -142 141 -262 266 -267 277 -5 11
-9 189 -10 396 l-1 377 -26 34 c-24 31 -98 68 -98 48z"/>
</g>
</svg>
